<svg width="35" height="35" viewBox="0 0 35 35" fill="none" xmlns="http://www.w3.org/2000/svg">
<path d="M4.89197 0.0266524C3.00931 0.267545 1.35271 1.47201 0.537376 3.1842C0.31872 3.64375 0.200126 3.99212 0.0852389 4.50726L0 4.89639V17.4413C0 29.5379 0.00370604 30.0011 0.0704148 30.3569C0.492903 32.6213 2.17174 34.3372 4.48431 34.8672L4.85491 34.9487L13.6716 34.9598C23.4444 34.9746 22.718 34.9932 23.0256 34.73C23.2628 34.5262 23.374 34.3075 23.3962 34.0111C23.4296 33.5441 23.2258 33.1809 22.8181 32.9808L22.6069 32.877L4.9661 32.84L4.63996 32.7362C4.00252 32.5361 3.51703 32.2396 3.07231 31.78C2.65353 31.339 2.40522 30.9165 2.21621 30.3124L2.11244 29.9863V4.97051L2.21621 4.64438C2.40522 4.0403 2.65353 3.61781 3.07231 3.17679C3.51703 2.71724 4.00252 2.42076 4.63996 2.22063L4.9661 2.11686H17.4555C29.5927 2.11686 29.9522 2.12057 30.2042 2.18728C31.5569 2.55417 32.4872 3.52886 32.8244 4.93345C32.8578 5.07428 32.8726 7.27197 32.8874 13.8873L32.9096 22.6557L33.0208 22.8336C33.2358 23.182 33.6694 23.4044 34.0363 23.3562C34.4254 23.3043 34.7775 23.0301 34.9183 22.6706C34.9813 22.5075 34.985 22.0961 34.9962 14.1986C35.0073 5.56719 35.0036 5.25217 34.8553 4.50355C34.7145 3.80682 34.418 3.08414 34.04 2.51711C33.195 1.25706 31.9943 0.441729 30.4637 0.0896551L30.0931 0.00441613L17.6222 0.000710084C10.4436 -0.00299596 5.04022 0.00812217 4.89197 0.0266524Z" fill="white"/>
<path d="M10.3954 8.34671C10.1694 8.39119 9.80248 8.5246 9.58012 8.6469C9.26881 8.82109 8.81667 9.27322 8.64249 9.58453C8.4016 10.0218 8.33859 10.2813 8.33859 10.8261C8.33859 11.2708 8.34971 11.3338 8.45348 11.6266C8.68326 12.2714 9.11316 12.7569 9.70983 13.0534C10.0767 13.235 10.4399 13.3276 10.7957 13.3276C11.5517 13.3276 12.3596 12.9348 12.7933 12.3529C13.3899 11.545 13.4826 10.5926 13.049 9.71424C12.7525 9.11386 12.2448 8.66914 11.6184 8.4579C11.3627 8.36895 11.2293 8.35042 10.8958 8.3393C10.6734 8.3356 10.4473 8.3393 10.3954 8.34671Z" fill="white"/>
<path d="M19.3863 15.0917C17.2257 17.875 15.4505 20.1542 15.4394 20.1616C15.4283 20.169 14.9613 19.4055 14.4054 18.4605C13.8495 17.5192 13.3714 16.7187 13.3492 16.6816C13.3084 16.626 12.8192 17.1078 9.12427 20.825C6.82653 23.1375 4.94757 25.0387 4.94757 25.0536C4.94757 25.0647 8.0384 25.0758 11.8149 25.0758L18.6784 25.0721L18.8082 24.9053C19.2084 24.3865 19.9644 23.9195 20.7316 23.712C21.0763 23.623 21.1356 23.6193 22.3956 23.6008L23.7001 23.586V22.4445C23.7001 21.1807 23.7298 20.8768 23.8854 20.3988C24.1893 19.4871 24.7601 18.7866 25.6013 18.2863C25.8237 18.1566 25.9201 18.0788 25.9052 18.0417C25.8608 17.9194 25.5902 16.9596 25.5902 16.9151C25.5902 16.8521 23.3666 10.0923 23.3332 10.0589C23.3221 10.0441 21.5432 12.3085 19.3863 15.0917Z" fill="white"/>
<path d="M27.0541 20.0096C26.8169 20.1245 26.639 20.2987 26.5316 20.5359L26.4426 20.7212V26.2951L20.828 26.3173L20.6538 26.4026C20.2906 26.5842 20.0719 26.8992 20.0386 27.2846C20.0052 27.7108 20.235 28.1185 20.6167 28.3075L20.7909 28.3927L26.4241 28.4298L26.4611 34.1L26.5612 34.2742C26.9911 35.0006 27.9695 35.0006 28.3994 34.2742L28.4995 34.1L28.5365 28.4298L34.1697 28.3927L34.3439 28.3075C34.8146 28.074 35.0406 27.5218 34.8664 27.0178C34.7923 26.7954 34.4588 26.4507 34.2438 26.3729C34.1215 26.3284 33.6175 26.3173 31.3086 26.3062L28.518 26.2951V20.7212L28.429 20.5322C28.329 20.3172 28.1289 20.1097 27.9324 20.0133C27.8472 19.9726 27.6878 19.9392 27.5174 19.9318C27.2839 19.9244 27.2098 19.9355 27.0541 20.0096Z" fill="white"/>
</svg>
